<svg width="960" height="560" viewBox="0 0 960 560" fill="none" xmlns="http://www.w3.org/2000/svg">
  <defs>
    <linearGradient id="bg" x1="36" y1="34" x2="924" y2="530" gradientUnits="userSpaceOnUse">
      <stop stop-color="#F1F9FF"/>
      <stop offset="1" stop-color="#FDF5EC"/>
    </linearGradient>
    <linearGradient id="stepA" x1="118" y1="198" x2="338" y2="382" gradientUnits="userSpaceOnUse">
      <stop stop-color="#0088A1"/>
      <stop offset="1" stop-color="#00A7BB"/>
    </linearGradient>
    <linearGradient id="stepB" x1="374" y1="172" x2="588" y2="388" gradientUnits="userSpaceOnUse">
      <stop stop-color="#FF8A3C"/>
      <stop offset="1" stop-color="#FFB066"/>
    </linearGradient>
    <linearGradient id="stepC" x1="630" y1="198" x2="848" y2="382" gradientUnits="userSpaceOnUse">
      <stop stop-color="#0A6D82"/>
      <stop offset="1" stop-color="#139C89"/>
    </linearGradient>
  </defs>

  <rect x="36" y="34" width="888" height="492" rx="26" fill="url(#bg)"/>
  <rect x="36" y="34" width="888" height="92" rx="26" fill="#0B6178"/>
  <circle cx="78" cy="80" r="9" fill="#FFD6B6"/>
  <circle cx="108" cy="80" r="9" fill="#AFEAF6"/>
  <circle cx="138" cy="80" r="9" fill="#FFE7B3"/>

  <rect x="114" y="174" width="228" height="210" rx="20" fill="url(#stepA)"/>
  <rect x="366" y="174" width="228" height="210" rx="20" fill="url(#stepB)"/>
  <rect x="618" y="174" width="228" height="210" rx="20" fill="url(#stepC)"/>

  <path d="M228 270L242 286L278 250" stroke="white" stroke-width="12" stroke-linecap="round" stroke-linejoin="round"/>
  <path d="M484 244V318" stroke="white" stroke-width="12" stroke-linecap="round"/>
  <circle cx="484" cy="226" r="10" fill="white"/>
  <circle cx="484" cy="336" r="10" fill="white"/>
  <path d="M731 238H780V286H731V238Z" stroke="white" stroke-width="10"/>
  <path d="M731 300H780" stroke="white" stroke-width="10" stroke-linecap="round"/>

  <path d="M342 278H366" stroke="#0F5E77" stroke-width="10" stroke-linecap="round"/>
  <path d="M594 278H618" stroke="#0F5E77" stroke-width="10" stroke-linecap="round"/>

  <rect x="114" y="418" width="228" height="52" rx="14" fill="#EAF6FE"/>
  <rect x="366" y="418" width="228" height="52" rx="14" fill="#FFF0DF"/>
  <rect x="618" y="418" width="228" height="52" rx="14" fill="#E8F7F2"/>

  <rect x="146" y="438" width="162" height="12" rx="6" fill="#22627D" fill-opacity="0.3"/>
  <rect x="398" y="438" width="162" height="12" rx="6" fill="#9D5E25" fill-opacity="0.26"/>
  <rect x="650" y="438" width="162" height="12" rx="6" fill="#175A56" fill-opacity="0.26"/>
</svg>
